{"title":"A Haunted House 2013 CAM XViD-COOKiEBOY","uid":8047349,"size":1038115348,"categoryP":"video","categoryS":"movies","magnet":"?xt=urn:btih:bbcb6bbaf1fb3e9f159fb04bfb37dde0617854f4&amp;dn=A+Haunted+House+2013+CAM+XViD-COOKiEBOY&amp;tr=udp%3A%2F%2Ftracker.openbittorrent.com%3A80&amp;tr=udp%3A%2F%2Fopen.demonii.com%3A1337&amp;tr=udp%3A%2F%2Ftracker.coppersurfer.tk%3A6969&amp;tr=udp%3A%2F%2Fexodus.desync.com%3A6969","seeders":3,"leechers":1,"uploader":"xxxlavalxxx","files":2,"time":1358781401,"description":" &lt;a href=&quot;http://www.shotpix.com/images/29992046945757552628.jpg&quot; rel=&quot;nofollow&quot; target=&quot;_NEW&quot;&gt;http://www.shotpix.com/images/29992046945757552628.jpg&lt;/a&gt;\n\n\n\n &lt;a href=&quot;\nhttp://www.imdb.com/title/tt2243537/&quot; rel=&quot;nofollow&quot; target=&quot;_NEW&quot;&gt;\nhttp://www.imdb.com/title/tt2243537/&lt;/a&gt;\n\n\nGenre : Comedy / Horror\n\nPlot : Malcolm and Kisha move into their dream home, but soon learn a demon also resides there. When Kisha becomes possessed, Malcolm - determined to keep his sex life on track - turns to a priest, a psychic, and a team of ghost-busters for help.\n\n\nTITLE: A Haunted House 2013 CAM XviD - FLICKER FREE - C00KIEBOY \n\nALL CREDIT TO ORIGINAL SOURCE/S: \nAUDIO - TICKLE TIME \nVIDEO - TICKLE TIME \n----------------------------------------------------------------------- \nalso BIG up. ADTRG, MATINE, TOMMIE COOK &amp; \nOTHERS \nSTATS: \nFormat : AVI \nFormat/Info : Audio Video Interleave \nFile size : 973 MiB \nDuration : 1h 21mn \nOverall bit rate : 1 671 Kbps \nMovie name : A Haunted House 2012 CAM FLICKER FIXED - C00KIEBOY \nDirector : C00KIEBOY \nWriting library : VirtualDub build 32842/release \nCopyright : 2013 \nComment : ENCODED BY C00KIEBOY \n\nVideo \nID : 0 \nFormat : MPEG-4 Visual \nFormat profile : Advanced Simple@L5 \nFormat settings, BVOP : 3 \nFormat settings, QPel : Yes \nFormat settings, GMC : No warppoints \nFormat settings, Matrix : Default (H.263) \nMuxing mode : Packed bitstream \nCodec ID : XVID \nCodec ID/Hint : XviD \nDuration : 1h 21mn \nBit rate : 1 531 Kbps \nWidth : 678 pixels \nHeight : 320 pixels \nDisplay aspect ratio : 2.119 \nFrame rate : 29.970 fps \nColor space : YUV \nChroma subsampling : 4:2:0 \nBit depth : 8 bits \nScan type : Progressive \nCompression mode : Lossy \nBits/(Pixel*Frame) : 0.235 \nStream size : 892 MiB (92%) \nWriting library : XviD 64 \n\nAudio \nID : 1 \nFormat : MPEG Audio \nFormat version : Version 1 \nFormat profile : Layer 3 \nCodec ID : 55 \nCodec ID/Hint : MP3 \nDuration : 1h 21mn \nBit rate mode : Constant \nBit rate : 128 Kbps \nChannel(s) : 2 channels \nSampling rate : 48.0 KHz \nCompression mode : Lossy \nStream size : 74.6 MiB (8%) \nAlignment : Split accross interleaves \nInterleave, duration : 33 ms (1.00 video frame) \nInterleave, preload duration : 500 ms \n\nWORKDONE: \n\nVIDEO - ADJUSTED COLOR TONES, SATURATED, DENOISED, REMOVED 97% OF SCREEN FLICKER, CROPED BLACK BARDS FROM MOST SCENES. \nAUDIO - LEFT ALONE.\n\n &lt;a href=&quot;\nhttp://www.shotpix.com/images/79520053219115399979.png&quot; rel=&quot;nofollow&quot; target=&quot;_NEW&quot;&gt;\nhttp://www.shotpix.com/images/79520053219115399979.png&lt;/a&gt;\n &lt;a href=&quot;\nhttp://www.shotpix.com/images/94898821457432027332.png&quot; rel=&quot;nofollow&quot; target=&quot;_NEW&quot;&gt;\nhttp://www.shotpix.com/images/94898821457432027332.png&lt;/a&gt;\n &lt;a href=&quot;\nhttp://www.shotpix.com/images/72284404933200425232.png&quot; rel=&quot;nofollow&quot; target=&quot;_NEW&quot;&gt;\nhttp://www.shotpix.com/images/72284404933200425232.png&lt;/a&gt;\n &lt;a href=&quot;\nhttp://www.shotpix.com/images/69764929315497750627.png&quot; rel=&quot;nofollow&quot; target=&quot;_NEW&quot;&gt;\nhttp://www.shotpix.com/images/69764929315497750627.png&lt;/a&gt;\n\n\n","torrent":{"xt":"urn:btih:bbcb6bbaf1fb3e9f159fb04bfb37dde0617854f4","amp;dn":"A+Haunted+House+2013+CAM+XViD-COOKiEBOY","amp;tr":["udp%3A%2F%2Ftracker.openbittorrent.com%3A80","udp%3A%2F%2Fopen.demonii.com%3A1337","udp%3A%2F%2Ftracker.coppersurfer.tk%3A6969","udp%3A%2F%2Fexodus.desync.com%3A6969"],"infoHash":"bbcb6bbaf1fb3e9f159fb04bfb37dde0617854f4","infoHashBuffer":{"type":"Buffer","data":[187,203,107,186,241,251,62,159,21,159,176,75,251,55,221,224,97,120,84,244]},"announce":[],"urlList":[]}}